<?xml version="1.0" encoding="UTF-8" standalone="no"?>
<!-- Created with Inkscape (http://www.inkscape.org/) -->

<svg
   width="281.97644mm"
   height="43.90979mm"
   viewBox="0 0 281.97643 43.90979"
   version="1.1"
   id="svg1"
   inkscape:version="1.3 (0e150ed6c4, 2023-07-21)"
   sodipodi:docname="logo-decents.svg"
   inkscape:export-filename="logo-decents.png"
   inkscape:export-xdpi="96"
   inkscape:export-ydpi="96"
   xmlns:inkscape="http://www.inkscape.org/namespaces/inkscape"
   xmlns:sodipodi="http://sodipodi.sourceforge.net/DTD/sodipodi-0.dtd"
   xmlns="http://www.w3.org/2000/svg"
   xmlns:svg="http://www.w3.org/2000/svg">
  <sodipodi:namedview
     id="namedview1"
     pagecolor="#ffffff"
     bordercolor="#000000"
     borderopacity="0.25"
     inkscape:showpageshadow="2"
     inkscape:pageopacity="0.0"
     inkscape:pagecheckerboard="0"
     inkscape:deskcolor="#d1d1d1"
     inkscape:document-units="mm"
     showguides="true"
     inkscape:zoom="0.35355339"
     inkscape:cx="470.93311"
     inkscape:cy="584.0702"
     inkscape:window-width="1360"
     inkscape:window-height="705"
     inkscape:window-x="-8"
     inkscape:window-y="-8"
     inkscape:window-maximized="1"
     inkscape:current-layer="layer1"
     inkscape:export-bgcolor="#ffffff00" />
  <defs
     id="defs1" />
  <g
     inkscape:label="Camada 1"
     inkscape:groupmode="layer"
     id="layer1"
     transform="translate(-2.0635881,-119.15556)">
    <path
       id="text1"
       style="font-size:192px;font-family:'Microsoft Himalaya';-inkscape-font-specification:'Microsoft Himalaya';white-space:pre;stroke-width:0.47294"
       d="m 117.37256,119.15556 c -3.72433,0 -7.18286,0.93111 -10.37515,2.7933 -3.16279,1.83258 -5.63102,4.43383 -7.404481,7.80354 -1.803081,3.34008 -2.70464,7.03506 -2.70464,11.08456 0,2.98536 0.487737,5.73441 1.463172,8.24691 0.975365,2.48286 2.320369,4.64073 4.034789,6.47337 1.74389,1.80303 3.81308,3.20715 6.20734,4.21215 2.39421,1.00499 5.025,1.50749 7.89222,1.50749 3.72433,0 6.91676,-0.82771 9.57705,-2.48293 2.68979,-1.68485 5.05455,-4.31567 7.09411,-7.89221 l -0.9311,-0.5764 c -2.42382,3.39919 -4.62603,5.61618 -6.6064,6.65073 -2.06911,1.12317 -4.37476,1.68485 -6.91676,1.68485 -2.42382,0 -4.5669,-0.41382 -6.42905,-1.24147 -1.86221,-0.8572 -3.44367,-2.0544 -4.74418,-3.5914 -1.27104,-1.56661 -2.24647,-3.44366 -2.92633,-5.63094 -0.65029,-2.18736 -0.97543,-4.62604 -0.97543,-7.31582 0,-3.34015 0.35469,-6.23698 1.06411,-8.6903 0.7094,-2.45337 1.68485,-4.493 2.92632,-6.11866 1.27097,-1.62574 2.77854,-2.82294 4.52251,-3.5914 1.74389,-0.7981 3.65051,-1.19714 5.71962,-1.19714 3.19229,0 5.91176,0.90154 8.15823,2.70464 2.27597,1.80302 4.03479,4.75905 5.27626,8.86765 h 0.9311 l -0.9311,-13.70052 h -1.01978 c -0.17732,0.79802 -0.48772,1.46316 -0.93109,1.99523 -0.41384,0.53204 -0.94589,0.79807 -1.59618,0.79807 -0.35471,0 -0.94589,-0.22168 -1.77354,-0.66507 -2.80808,-1.41882 -5.67536,-2.12823 -8.60162,-2.12823 z m 151.72546,0 c -1.68486,0 -3.25148,0.28081 -4.69986,0.84244 -1.44837,0.5616 -2.70462,1.33014 -3.76875,2.30558 -1.03456,0.97536 -1.84741,2.11345 -2.4386,3.41404 -0.59117,1.27096 -0.88677,2.61596 -0.88677,4.03478 0,1.68479 0.3695,3.22191 1.10846,4.61116 0.76853,1.35965 1.87698,2.61597 3.32536,3.76876 2.60119,1.77347 5.57192,3.62097 8.91199,5.54229 1.74397,1.03449 3.25147,1.93611 4.5225,2.70462 1.3006,0.97538 2.21692,1.96567 2.74897,2.97067 0.56161,1.00493 0.84244,2.01001 0.84244,3.01501 0,0.88675 -0.19215,1.72918 -0.5764,2.52726 -0.35472,0.7981 -0.88676,1.50751 -1.59619,2.12824 -0.67985,0.59119 -1.52227,1.06412 -2.52728,1.41883 -0.97543,0.35471 -2.08389,0.53206 -3.32536,0.53206 -1.03456,0 -2.05433,-0.11813 -3.05933,-0.3547 -1.00501,-0.26603 -1.95089,-0.62075 -2.83765,-1.06412 -0.85721,-0.47295 -1.64052,-1.005 -2.34994,-1.59617 -0.67985,-0.62075 -1.22667,-1.28582 -1.6405,-1.99523 -0.85721,-1.5075 -1.55184,-3.68014 -2.0839,-6.51772 h -1.10845 v 13.83352 h 1.10845 c 0.14783,-0.94588 0.35469,-1.56661 0.62073,-1.86221 0.29559,-0.29558 0.69463,-0.44337 1.19713,-0.44337 0.11813,0 0.54684,0.1035 1.28582,0.31037 0.73897,0.2069 1.53706,0.4286 2.39426,0.66507 0.85722,0.23647 1.65529,0.45816 2.39426,0.66507 0.76854,0.23648 1.24147,0.3695 1.41883,0.39904 1.005,0.17732 2.09867,0.26603 3.28104,0.26603 1.8622,0 3.5766,-0.31035 5.14322,-0.9311 1.56661,-0.59117 2.89676,-1.38926 3.99044,-2.39426 1.12324,-1.03457 1.99522,-2.23176 2.61597,-3.5914 0.62073,-1.35971 0.9311,-2.79339 0.9311,-4.30081 0,-1.59618 -0.3695,-3.11853 -1.10847,-4.56684 -0.73897,-1.47794 -1.80307,-2.74904 -3.19236,-3.81308 -3.22182,-2.09868 -5.77873,-3.66536 -7.67051,-4.69986 -2.00993,-1.06412 -4.3008,-2.40911 -6.87241,-4.03479 -1.53706,-1.41882 -2.45339,-2.45337 -2.74897,-3.10365 -0.2956,-0.67987 -0.44338,-1.38936 -0.44338,-2.12826 0,-0.79807 0.17731,-1.56668 0.53205,-2.30557 0.35469,-0.73897 0.85719,-1.38929 1.50749,-1.95089 0.6503,-0.59119 1.40406,-1.06411 2.26125,-1.41883 0.85721,-0.35471 1.8031,-0.53205 2.83764,-0.53205 3.01494,0 5.49802,0.99022 7.44883,2.97066 1.9509,1.98037 3.17758,4.84765 3.68008,8.60162 h 1.10847 v -13.92221 h -1.10847 c -0.17731,0.9458 -0.4286,1.56661 -0.75375,1.8622 -0.32514,0.2956 -0.75374,0.44338 -1.28581,0.44338 -0.23647,0.0295 -0.54683,-0.0295 -0.93109,-0.17731 -0.38428,-0.14783 -0.85722,-0.33993 -1.41882,-0.5764 -2.39421,-1.03457 -4.65553,-1.55183 -6.78376,-1.55183 z m -28.3774,0.84521 c -0.0105,0 -0.0198,8.7e-4 -0.0295,0.004 0.009,0.001 0.0185,0.001 0.0277,0.001 0.001,0 0.004,-0.005 0.001,-0.005 z m -226.124091,0.0417 v 1.10845 h 1.551839 c 1.507501,0 2.645587,0.44338 3.41405,1.33016 0.561613,0.65021 0.842428,2.21689 0.842428,4.69985 v 26.02655 c 0,1.35962 -0.103495,1.72918 -0.31038,2.52726 -0.17732,0.7981 -1.086341,1.50316 -1.62573,1.5814 -2.576426,0.37379 -5.438591,0.90628 -8.169316,1.75783 -2.9125234,0.90825 -8.2358319,3.99138 -8.2358319,3.99138 0,0 7.010317,-2.26076 9.9640959,-2.71942 7.242858,-1.12468 18.914871,-1.00317 18.914871,-1.00317 3.724423,0 8.645967,0.50067 11.454049,-0.50434 2.808029,-1.005 5.15803,-2.40911 7.049788,-4.21212 1.921253,-1.8031 3.35493,-3.94618 4.300801,-6.42904 0.975382,-2.48297 1.463171,-5.21722 1.463171,-8.20258 0,-4.13816 -0.960742,-7.81838 -2.881995,-11.04024 -1.891758,-3.16278 -4.419115,-5.43888 -7.581835,-6.82808 -3.192358,-1.38926 -7.774046,-2.08389 -13.744849,-2.08389 z m 44.160887,0 v 1.10845 h 1.418822 c 1.684786,0 2.881995,0.39904 3.591399,1.19713 0.502429,0.59118 0.753751,2.17257 0.753751,4.74421 v 26.15954 c 0,1.95083 -0.118156,3.25148 -0.354693,3.90177 -0.118156,0.35471 -0.325164,0.66507 -0.620743,0.9311 -0.295599,0.26603 -0.635579,0.48772 -1.019784,0.66507 -0.35471,0.14784 -0.73904,0.26603 -1.152791,0.35472 -0.413823,0.0886 -0.812934,0.13299 -1.197139,0.13299 h -1.418822 v 1.10845 h 31.036755 l 3.502721,-10.10912 h -1.197121 c -1.330145,2.542 -2.586469,4.3895 -3.768753,5.5423 -0.502501,0.47292 -0.975436,0.87197 -1.418824,1.19711 -0.443387,0.2956 -0.960671,0.53207 -1.551831,0.70942 -0.561631,0.17732 -1.241557,0.29558 -2.039567,0.35471 -0.79808,0.0592 -1.773606,0.0887 -2.926324,0.0887 h -6.828077 c -0.857211,0 -1.507572,-0.0443 -1.950889,-0.13299 -0.443371,-0.0887 -0.768534,-0.28079 -0.975436,-0.5764 -0.206938,-0.32514 -0.325164,-0.78329 -0.35471,-1.37448 -0.02949,-0.59117 -0.04433,-1.38927 -0.04433,-2.39427 v -13.30146 h 8.823296 c 1.300509,0 2.335146,0.10349 3.10368,0.31036 0.768462,0.17732 1.359711,0.5025 1.773534,0.97544 0.44337,0.44338 0.753751,1.04935 0.931088,1.81788 0.20692,0.76851 0.384275,1.72919 0.532065,2.88198 h 1.108461 v -14.01089 h -1.108461 c -0.05917,1.00493 -0.177319,1.87698 -0.35471,2.61596 -0.17732,0.73897 -0.5025,1.34493 -0.975436,1.81788 -0.443388,0.47293 -1.064185,0.82764 -1.862212,1.0641 -0.79808,0.23647 -1.8475,0.35472 -3.148009,0.35472 H 70.241035 V 122.2594 h 11.040199 c 1.359641,0 2.468173,0.0738 3.325383,0.2217 0.886688,0.11813 1.610944,0.41383 2.172575,0.88675 0.561613,0.47296 1.005001,1.15279 1.330146,2.03957 0.354693,0.85714 0.679838,2.01001 0.975436,3.45837 h 0.709402 v -8.8233 z m 77.724934,0 v 1.10845 h 1.41882 c 1.68478,0 2.88197,0.39904 3.5914,1.19713 0.5025,0.59118 0.75375,2.17257 0.75375,4.74421 v 26.15954 c 0,1.95083 -0.11813,3.25148 -0.35471,3.90177 -0.11813,0.35471 -0.32515,0.66507 -0.62073,0.9311 -0.29559,0.26603 -0.63553,0.48772 -1.01978,0.66507 -0.35472,0.14784 -0.73897,0.26603 -1.15279,0.35472 -0.41382,0.0886 -0.81288,0.13299 -1.19714,0.13299 h -1.41882 v 1.10845 h 31.03676 l 3.50271,-10.10912 h -1.19713 c -1.33014,2.542 -2.5864,4.3895 -3.76874,5.5423 -0.50249,0.47292 -0.97545,0.87197 -1.41882,1.19711 -0.44339,0.2956 -0.96067,0.53207 -1.55184,0.70942 -0.56162,0.17732 -1.24147,0.29558 -2.03956,0.35471 -0.7981,0.0592 -1.77354,0.0887 -2.92633,0.0887 h -6.82808 c -0.8572,0 -1.5075,-0.0443 -1.95088,-0.13299 -0.44339,-0.0887 -0.76854,-0.28079 -0.97544,-0.5764 -0.20693,-0.32514 -0.32518,-0.78329 -0.35472,-1.37448 -0.0295,-0.59117 -0.0443,-1.38927 -0.0443,-2.39427 v -13.30146 h 8.82332 c 1.30057,0 2.33514,0.10349 3.10366,0.31036 0.76854,0.17732 1.35971,0.5025 1.77354,0.97544 0.44338,0.44338 0.75374,1.04935 0.9311,1.81788 0.20692,0.76851 0.38426,1.72919 0.53207,2.88198 h 1.10844 v -14.01089 h -1.10844 c -0.0592,1.00493 -0.17733,1.87698 -0.35472,2.61596 -0.17731,0.73897 -0.5025,1.34493 -0.97543,1.81788 -0.44339,0.47293 -1.06414,0.82764 -1.86221,1.0641 -0.79809,0.23647 -1.84744,0.35472 -3.14801,0.35472 h -8.82332 V 122.2594 h 11.04023 c 1.3597,0 2.46817,0.0738 3.32536,0.2217 0.88677,0.11813 1.61096,0.41383 2.17257,0.88675 0.56161,0.47296 1.00501,1.15279 1.33015,2.03957 0.35471,0.85714 0.67985,2.01001 0.97546,3.45837 h 0.70939 v -8.8233 z m 35.11587,0 v 1.10845 c 1.15279,0 2.02479,0.0887 2.61596,0.26604 0.62074,0.2069 1.13801,0.39905 1.55184,0.5764 0.41382,0.17731 0.7981,0.39904 1.15279,0.66507 0.35472,0.26603 0.7242,0.60594 1.10846,1.01976 0.41383,0.41384 0.91633,0.97546 1.5075,1.68487 v 28.02177 c 0,1.33008 -0.0887,2.37948 -0.26603,3.14801 -0.17732,0.76854 -0.45816,1.35971 -0.84242,1.77353 -0.35469,0.38427 -0.79809,0.63552 -1.33016,0.75375 -0.53204,0.11813 -1.15279,0.17733 -1.86219,0.17733 h -1.41882 v 1.10845 h 14.01088 v -1.10845 h -1.41882 c -0.67986,0 -1.28582,-0.0443 -1.81787,-0.13299 -0.53207,-0.0887 -0.97545,-0.32515 -1.33017,-0.70942 -0.35469,-0.38427 -0.6355,-0.96066 -0.84241,-1.72919 -0.17731,-0.79809 -0.26603,-1.89184 -0.26603,-3.28102 v -24.82942 l 26.55862,32.45559 h 1.06411 v -33.9631 c 0,-1.33014 0.0886,-2.37954 0.26603,-3.148 0.17731,-0.76854 0.44337,-1.35972 0.79808,-1.77354 0.35471,-0.41382 0.79808,-0.67985 1.33015,-0.79807 0.53206,-0.11813 1.15279,-0.17733 1.8622,-0.17733 h 1.46316 v -1.10845 h -14.05521 v 1.10845 h 1.41882 c 0.67986,0 1.28581,0.0592 1.81786,0.17733 0.53207,0.0886 0.97544,0.32514 1.33016,0.70939 0.38425,0.38428 0.66507,0.97544 0.84242,1.77354 0.2069,0.79801 0.31037,1.87697 0.31037,3.23668 v 23.23325 l -24.65205,-30.23868 z m 46.5995,0 v 9.48837 h 1.10847 c 0.0886,-1.41882 0.32514,-2.57168 0.70939,-3.45837 0.41383,-0.91633 0.96068,-1.62575 1.64051,-2.12825 0.67985,-0.53204 1.47795,-0.88675 2.39428,-1.06411 0.94588,-0.2069 2.02477,-0.31036 3.23669,-0.31036 h 4.83287 v 30.81508 c 0,1.33008 -0.10349,2.37948 -0.31037,3.14801 -0.17732,0.76854 -0.44339,1.35971 -0.7981,1.77353 -0.35469,0.38427 -0.79808,0.63552 -1.33014,0.75375 -0.53204,0.11813 -1.15279,0.17733 -1.8622,0.17733 h -1.41882 v 1.10845 h 17.07022 v -1.10845 h -1.3745 c -0.7094,0 -1.33014,-0.0443 -1.86219,-0.13299 -0.53207,-0.11813 -0.97546,-0.3695 -1.33015,-0.75376 -0.35471,-0.38425 -0.63553,-0.96065 -0.84243,-1.72919 -0.17731,-0.79808 -0.26603,-1.87706 -0.26603,-3.23668 V 122.1337 l 22.28182,-2.09127 h -22.27442 -0.34086 z" />
  </g>
</svg>
